#N canvas 0 0 338 368 10;
#X obj 47 32 dumpOSC 77777;
#X obj 135 99 print;
#X obj 247 164 print;
#X obj 47 69 OSCroute /osc;
#X obj 47 129 OSCroute /pitch /volume /mute;
#X floatatom 47 160 5 0 0 0 - - -;
#X floatatom 113 160 5 0 0 0 - - -;
#X obj 47 193 osc~;
#X obj 113 193 dbtorms;
#X obj 47 234 *~;
#X obj 48 283 *~;
#X obj 48 321 dac~;
#X obj 180 193 * -1;
#X obj 180 222 + 1;
#X floatatom 180 159 5 0 0 0 - - -;
#X connect 0 0 3 0;
#X connect 3 0 4 0;
#X connect 3 1 1 0;
#X connect 4 0 5 0;
#X connect 4 1 6 0;
#X connect 4 2 14 0;
#X connect 4 3 2 0;
#X connect 5 0 7 0;
#X connect 6 0 8 0;
#X connect 7 0 9 0;
#X connect 8 0 9 1;
#X connect 9 0 10 0;
#X connect 10 0 11 0;
#X connect 10 0 11 1;
#X connect 12 0 13 0;
#X connect 13 0 10 1;
#X connect 14 0 12 0;
